<?xml version="1.0"?>
<svg xmlns="http://www.w3.org/2000/svg" xmlns:xlink="http://www.w3.org/1999/xlink" xmlns:svgjs="http://svgjs.com/svgjs" version="1.1" width="512" height="512" x="0" y="0" viewBox="0 0 508 508" style="enable-background:new 0 0 512 512" xml:space="preserve" class=""><g>
<circle xmlns="http://www.w3.org/2000/svg" style="" cx="254" cy="254" r="254" fill="#e371e1" data-original="#ffd05b" class=""/>
<path xmlns="http://www.w3.org/2000/svg" style="" d="M256.8,177.6h-100v119.6c64.4-17.2,100.4,24,100.4,24s36-41.2,100.4-24V177.6H256.8z" fill="#2b3b4e" data-original="#2b3b4e" class=""/>
<polygon xmlns="http://www.w3.org/2000/svg" style="" points="252.8,349.2 233.2,349.2 233.2,398 252.8,381.6 272.4,398 272.4,349.2 " fill="#f1543f" data-original="#f1543f"/>
<path xmlns="http://www.w3.org/2000/svg" style="" d="M418.8,277.6c-109.6,14.4-221.6,14.4-331.6,0l0,0v96.8l0,0c109.6-14.4,221.6-14.4,331.6,0l0,0V277.6  L418.8,277.6z" fill="#e6e9ee" data-original="#e6e9ee" class=""/>
<path xmlns="http://www.w3.org/2000/svg" style="" d="M275.6,288.4V364c-7.6,0-15.2,0-22.4,0c-7.6,0-15.2,0-22.4,0v-75.6  C245.6,288.8,260.4,288.8,275.6,288.4z" fill="#ff7058" data-original="#ff7058" class=""/>
<polygon xmlns="http://www.w3.org/2000/svg" style="" points="409.2,304 368,304 376.8,269.2 400.4,269.2 " fill="#f9b54c" data-original="#f9b54c"/>
<rect xmlns="http://www.w3.org/2000/svg" x="384.8" y="177.6" style="" width="8" height="103.2" fill="#ff7058" data-original="#ff7058" class=""/>
<polygon xmlns="http://www.w3.org/2000/svg" style="" points="256.8,110 92.8,177.6 256.8,244.8 420.8,177.6 " fill="#324a5e" data-original="#324a5e" class=""/>
<circle xmlns="http://www.w3.org/2000/svg" style="" cx="388.8" cy="269.2" r="16.4" fill="#e371e1" data-original="#ffd05b" class=""/>
<g xmlns="http://www.w3.org/2000/svg">
</g>
<g xmlns="http://www.w3.org/2000/svg">
</g>
<g xmlns="http://www.w3.org/2000/svg">
</g>
<g xmlns="http://www.w3.org/2000/svg">
</g>
<g xmlns="http://www.w3.org/2000/svg">
</g>
<g xmlns="http://www.w3.org/2000/svg">
</g>
<g xmlns="http://www.w3.org/2000/svg">
</g>
<g xmlns="http://www.w3.org/2000/svg">
</g>
<g xmlns="http://www.w3.org/2000/svg">
</g>
<g xmlns="http://www.w3.org/2000/svg">
</g>
<g xmlns="http://www.w3.org/2000/svg">
</g>
<g xmlns="http://www.w3.org/2000/svg">
</g>
<g xmlns="http://www.w3.org/2000/svg">
</g>
<g xmlns="http://www.w3.org/2000/svg">
</g>
<g xmlns="http://www.w3.org/2000/svg">
</g>
</g></svg>
